<svg width="58.000000" height="58.000000" viewBox="0 0 58 58" fill="none" xmlns="http://www.w3.org/2000/svg" xmlns:xlink="http://www.w3.org/1999/xlink">
	<desc>
			Created with Pixso.
	</desc>
	<defs>
		<filter id="filter_1_98_dd" x="0.000000" y="0.000000" width="58.000000" height="58.000000" filterUnits="userSpaceOnUse" color-interpolation-filters="sRGB">
			<feFlood flood-opacity="0" result="BackgroundImageFix"/>
			<feColorMatrix in="SourceAlpha" type="matrix" values="0 0 0 0 0 0 0 0 0 0 0 0 0 0 0 0 0 0 127 0" result="hardAlpha"/>
			<feOffset dx="0" dy="4"/>
			<feGaussianBlur stdDeviation="1.33333"/>
			<feComposite in2="hardAlpha" operator="out" k2="-1" k3="1"/>
			<feColorMatrix type="matrix" values="0 0 0 0 0 0 0 0 0 0 0 0 0 0 0 0 0 0 0.25 0"/>
			<feBlend mode="normal" in2="BackgroundImageFix" result="effect_dropShadow_1"/>
			<feBlend mode="normal" in="SourceGraphic" in2="effect_dropShadow_1" result="shape"/>
		</filter>
		<clipPath id="clip1_98">
			<rect id="icon" rx="0.000000" width="49.000000" height="49.000000" transform="translate(4.500000 0.500000)" fill="white" fill-opacity="0"/>
		</clipPath>
	</defs>
	<g filter="url(#filter_1_98_dd)">
		<rect id="icon" rx="0.000000" width="49.000000" height="49.000000" transform="translate(4.500000 0.500000)" fill="#FFFFFF" fill-opacity="0"/>
		<g clip-path="url(#clip1_98)">
			<rect id="icon bd" x="4.000000" rx="19.000000" width="50.000000" height="50.000000" fill="#4D8DFF" fill-opacity="1.000000"/>
			<path id="" d="M30.65 24.9L29.48 24.35L29.48 23.3C29.48 22.8 29.07 22.39 28.57 22.39C28.07 22.39 27.66 22.8 27.66 23.3L27.66 28.76C27.66 30.85 25.92 32.54 23.83 32.54C21.71 32.54 20 30.83 20 28.71L20 26.33L22.92 26.33L22.92 28.67C22.92 29.18 23.33 29.58 23.83 29.58C24.33 29.58 24.75 29.18 24.75 28.67L24.75 23.14C24.75 21.09 26.5 19.45 28.57 19.45C30.65 19.45 32.39 21.1 32.39 23.16L32.39 24.38L30.65 24.9ZM34.21 28.79L34.21 26.33L37.14 26.33L37.14 28.71C37.14 30.83 35.42 32.54 33.31 32.54C31.2 32.54 29.48 30.84 29.48 28.75L29.48 26.35L30.65 26.9L32.39 26.38L32.39 28.79C32.39 29.29 32.8 29.69 33.3 29.69C33.8 29.69 34.21 29.29 34.21 28.79Z" fill="#FFFFFF" fill-opacity="1.000000" fill-rule="evenodd"/>
		</g>
	</g>
</svg>
