<svg width="40.000000" height="36.363770" viewBox="0 0 40 36.3638" fill="none" xmlns="http://www.w3.org/2000/svg" xmlns:xlink="http://www.w3.org/1999/xlink">
	<desc>
			Created with Pixso.
	</desc>
	<defs/>
	<path id="Subtract" d="M3.13306 34.4585C1.40991 34.4585 0 33.0488 0 31.3254L0 20.3721L7.88629 20.3721L7.88629 20.3599L12.6263 20.3599C13.8481 20.3284 14.8821 19.2632 14.8821 18.01C14.8821 16.7253 13.8168 15.6602 12.5323 15.6602L6.26611 15.6602L6.26611 15.6621L0 15.6621L0 12.5271C0 10.804 1.40991 9.39404 3.13306 9.39404L12.5323 9.39404C14.9134 9.39404 16.9499 10.24 18.6104 11.9319C20.3023 13.5923 21.1483 15.6289 21.1483 18.01C21.1483 20.3599 20.3336 22.3962 18.6731 24.0569C17.0126 25.7173 15.0074 26.5945 12.6576 26.626L6.26611 26.626L6.26611 31.3254C6.26611 33.0488 4.85626 34.4585 3.13306 34.4585Z" clip-rule="evenodd" fill="#02BC6B" fill-opacity="1.000000" fill-rule="evenodd"/>
	<path id="PARAGON (Stroke)" d="M25.09 5.75C28.55 9.11 30.3 13.3 30.3 18.06C30.3 22.74 28.63 26.93 25.22 30.3L20.38 25.75C22.5 23.65 23.54 21.12 23.54 18.06C23.54 14.98 22.47 12.46 20.3 10.35L25.09 5.75Z" fill="#02897A" fill-opacity="1.000000" fill-rule="evenodd"/>
	<path id="PARAGON (Stroke)" d="M32.5 0C37.49 4.97 40 11.14 40 18.23C40 25.2 37.59 31.37 32.68 36.36L28.01 31.8C31.67 28.08 33.46 23.57 33.46 18.23C33.46 12.83 31.61 8.33 27.87 4.6L32.5 0Z" fill="#035B81" fill-opacity="1.000000" fill-rule="evenodd"/>
	<path id="Subtract" d="M0 26.6523L6.26611 26.6523L6.26611 31.3259C6.26611 33.0491 4.85626 34.459 3.13306 34.459C1.40991 34.459 0 33.0491 0 31.3259L0 26.6523Z" clip-rule="evenodd" fill="#028E37" fill-opacity="1.000000" fill-rule="evenodd"/>
</svg>
