<svg width="58.000000" height="58.000000" viewBox="0 0 58 58" fill="none" xmlns="http://www.w3.org/2000/svg" xmlns:xlink="http://www.w3.org/1999/xlink">
	<desc>
			Created with Pixso.
	</desc>
	<defs>
		<filter id="filter_1_105_dd" x="0.000000" y="0.000000" width="58.000000" height="58.000000" filterUnits="userSpaceOnUse" color-interpolation-filters="sRGB">
			<feFlood flood-opacity="0" result="BackgroundImageFix"/>
			<feColorMatrix in="SourceAlpha" type="matrix" values="0 0 0 0 0 0 0 0 0 0 0 0 0 0 0 0 0 0 127 0" result="hardAlpha"/>
			<feOffset dx="0" dy="4"/>
			<feGaussianBlur stdDeviation="1.33333"/>
			<feComposite in2="hardAlpha" operator="out" k2="-1" k3="1"/>
			<feColorMatrix type="matrix" values="0 0 0 0 0 0 0 0 0 0 0 0 0 0 0 0 0 0 0.25 0"/>
			<feBlend mode="normal" in2="BackgroundImageFix" result="effect_dropShadow_1"/>
			<feBlend mode="normal" in="SourceGraphic" in2="effect_dropShadow_1" result="shape"/>
		</filter>
		<clipPath id="clip1_105">
			<rect id="icon" rx="0.000000" width="49.000000" height="49.000000" transform="translate(4.500000 0.500000)" fill="white" fill-opacity="0"/>
		</clipPath>
	</defs>
	<g filter="url(#filter_1_105_dd)">
		<rect id="icon" rx="0.000000" width="49.000000" height="49.000000" transform="translate(4.500000 0.500000)" fill="#FFFFFF" fill-opacity="0"/>
		<g clip-path="url(#clip1_105)">
			<rect id="icon bd" x="4.000000" rx="19.000000" width="50.000000" height="50.000000" fill="#740A76" fill-opacity="1.000000"/>
			<path id="" d="M29.39 32.69C29.28 32.8 29.14 32.85 29 32.85C28.85 32.85 28.71 32.8 28.6 32.69L23.03 27.32C22.96 27.25 21 25.46 21 23.32C21 20.7 22.59 19.14 25.26 19.14C26.83 19.14 28.29 20.37 29 21.07C29.7 20.37 31.16 19.14 32.73 19.14C35.4 19.14 37 20.7 37 23.32C37 25.46 35.03 27.25 34.95 27.33L29.39 32.69Z" fill="#FFFFFF" fill-opacity="1.000000" fill-rule="evenodd"/>
		</g>
	</g>
</svg>
