<svg width="118.741058" height="22.441406" viewBox="0 0 118.741 22.4414" fill="none" xmlns="http://www.w3.org/2000/svg" xmlns:xlink="http://www.w3.org/1999/xlink">
	<desc>
			Created with Pixso.
	</desc>
	<defs/>
	<path id="Product" d="M50.62 9.27Q49.65 11.22 49.65 13.79Q49.65 16.37 50.62 18.34Q51.43 19.97 52.71 20.98Q52.98 21.19 53.27 21.37Q53.92 21.78 54.62 22.03Q55.75 22.44 57.02 22.44Q58.79 22.44 60.13 21.72Q61.2 21.14 61.87 20.26Q62.04 20.04 62.19 19.79L62.19 22.19L67.31 22.19L67.31 0L62.19 0L62.19 7.77Q62.03 7.53 61.85 7.32Q61.13 6.46 60.04 5.91Q59.86 5.81 59.67 5.73Q58.46 5.22 57.02 5.22Q55.71 5.22 54.56 5.64Q53.89 5.88 53.27 6.26Q52.98 6.45 52.71 6.65Q51.43 7.65 50.62 9.27ZM15.61 10.36Q16.04 9.22 16.04 7.91Q16.04 6.09 15.3 4.65Q15.24 4.53 15.17 4.4Q14.99 4.08 14.76 3.78Q13.93 2.69 12.56 2.01Q10.83 1.14 8.31 1.14L0 1.14L0 22.19L5.12 22.19L5.12 14.64L8.31 14.64Q10.89 14.64 12.62 13.71Q14.17 12.88 15 11.59Q15.11 11.43 15.2 11.26Q15.44 10.82 15.61 10.36ZM118.74 22.19L118.74 17.84L116.91 17.84Q116.06 17.84 115.7 17.51Q115.35 17.18 115.35 16.44L115.35 9.71L118.71 9.71L118.71 5.45L115.35 5.45L115.35 1.37L110.22 1.37L110.22 5.45L108.18 5.45L108.18 9.71L110.22 9.71L110.22 16.37Q110.22 19.42 111.73 20.79Q111.76 20.81 111.78 20.83Q113.34 22.19 116.12 22.19L118.74 22.19ZM35.1 21.57Q36.93 22.44 39.17 22.44Q41.33 22.44 43.12 21.63Q43.38 21.52 43.63 21.39Q44.58 20.88 45.35 20.17Q46.18 19.39 46.77 18.37Q46.87 18.21 46.96 18.04Q47.93 16.19 47.93 13.82Q47.93 11.39 46.92 9.51Q46.86 9.4 46.79 9.28Q46.17 8.21 45.31 7.42Q44.58 6.74 43.67 6.26Q43.44 6.14 43.2 6.03Q41.4 5.22 39.24 5.22Q37.06 5.22 35.25 6.04Q35.02 6.14 34.79 6.26Q33.92 6.73 33.21 7.37Q32.31 8.18 31.67 9.28Q31.62 9.38 31.56 9.47Q30.54 11.37 30.54 13.82Q30.54 16.44 31.66 18.39Q32.26 19.43 33.1 20.21Q33.83 20.9 34.75 21.39Q34.92 21.48 35.1 21.57ZM91.3 9.27Q90.24 11.22 90.24 13.82Q90.24 16.44 91.3 18.39Q91.91 19.49 92.78 20.31Q93.45 20.93 94.27 21.39Q94.32 21.42 94.37 21.44Q96.24 22.44 98.64 22.44Q101.19 22.44 103.07 21.32Q103.49 21.07 103.88 20.76Q104.47 20.3 104.94 19.74Q106.2 18.27 106.67 16.14L101.22 16.14Q100.86 17.14 100.15 17.61Q99.49 18.06 98.54 18.06Q97.8 18.06 97.22 17.76Q96.69 17.48 96.29 16.97Q95.45 15.87 95.45 13.82Q95.45 11.79 96.29 10.7Q96.7 10.17 97.23 9.89Q97.81 9.6 98.54 9.6Q99.49 9.6 100.15 10.04Q100.86 10.52 101.22 11.52L106.67 11.52Q106.16 9.16 104.74 7.64Q104.35 7.22 103.9 6.87Q103.61 6.64 103.3 6.44Q101.35 5.22 98.64 5.22Q96.24 5.22 94.37 6.21Q94.32 6.24 94.27 6.26Q93.47 6.7 92.82 7.3Q91.92 8.13 91.3 9.27ZM10.1 9.87Q9.38 10.56 7.91 10.56L5.12 10.56L5.12 5.28L7.91 5.28Q9.38 5.28 10.1 5.96Q10.22 6.07 10.31 6.19Q10.83 6.85 10.83 7.91Q10.83 8.97 10.31 9.63Q10.22 9.76 10.1 9.87ZM25.43 6.52Q24.51 7.22 23.84 8.24L23.84 5.45L18.71 5.45L18.71 22.19L23.84 22.19L23.84 14.42Q23.84 12.36 24.8 11.53Q25.77 10.7 27.69 10.7L29.09 10.7L29.09 5.28Q27.99 5.28 27.02 5.63Q26.54 5.81 26.09 6.07Q25.75 6.28 25.43 6.52ZM87.57 22.19L87.57 5.45L82.43 5.45L82.43 14.55Q82.43 16.14 81.64 17.06Q81.6 17.11 81.56 17.16Q81.35 17.39 81.09 17.56Q80.32 18.09 79.19 18.09Q78.13 18.09 77.38 17.6Q77.09 17.42 76.85 17.16Q76.82 17.12 76.78 17.08Q75.99 16.16 75.99 14.55L75.99 5.45L70.88 5.45L70.88 15.24Q70.88 17.43 71.69 19.05Q72.26 20.18 73.15 20.94Q73.53 21.26 73.97 21.52Q74.09 21.59 74.22 21.66Q75.6 22.38 77.36 22.38Q78.76 22.38 79.94 21.88Q80.13 21.8 80.31 21.7Q81.57 21.07 82.33 20.06Q82.38 19.99 82.43 19.92L82.43 22.19L87.57 22.19ZM40.48 17.75Q39.88 18 39.17 18Q38.43 18 37.81 17.72Q37.21 17.45 36.73 16.92Q35.75 15.84 35.75 13.82Q35.75 11.79 36.74 10.73Q37.2 10.24 37.76 9.97Q38.42 9.66 39.24 9.66Q39.95 9.66 40.56 9.91Q41.19 10.18 41.71 10.74Q41.72 10.75 41.73 10.76Q42.72 11.84 42.72 13.82Q42.72 15.76 41.75 16.84Q41.72 16.88 41.68 16.92Q41.14 17.48 40.48 17.75ZM61.39 11.11Q62.19 12.16 62.19 13.82Q62.19 15.48 61.39 16.53Q61.26 16.7 61.12 16.86Q60.58 17.41 59.93 17.69Q59.29 17.96 58.52 17.96Q57.79 17.96 57.16 17.7Q56.48 17.42 55.92 16.84Q55.78 16.69 55.66 16.52Q54.86 15.45 54.86 13.79Q54.86 12.11 55.68 11.07Q55.79 10.92 55.92 10.78Q56.46 10.23 57.12 9.96Q57.76 9.68 58.52 9.68Q59.28 9.68 59.92 9.95Q60.58 10.23 61.12 10.8Q61.26 10.95 61.39 11.11Z" fill="#173A56" fill-opacity="1.000000" fill-rule="evenodd"/>
</svg>
