<svg width="59.000000" height="58.000000" viewBox="0 0 59 58" fill="none" xmlns="http://www.w3.org/2000/svg" xmlns:xlink="http://www.w3.org/1999/xlink">
	<desc>
			Created with Pixso.
	</desc>
	<defs>
		<filter id="filter_1_91_dd" x="0.000000" y="0.000000" width="59.000000" height="58.000000" filterUnits="userSpaceOnUse" color-interpolation-filters="sRGB">
			<feFlood flood-opacity="0" result="BackgroundImageFix"/>
			<feColorMatrix in="SourceAlpha" type="matrix" values="0 0 0 0 0 0 0 0 0 0 0 0 0 0 0 0 0 0 127 0" result="hardAlpha"/>
			<feOffset dx="0" dy="4"/>
			<feGaussianBlur stdDeviation="1.33333"/>
			<feComposite in2="hardAlpha" operator="out" k2="-1" k3="1"/>
			<feColorMatrix type="matrix" values="0 0 0 0 0 0 0 0 0 0 0 0 0 0 0 0 0 0 0.25 0"/>
			<feBlend mode="normal" in2="BackgroundImageFix" result="effect_dropShadow_1"/>
			<feBlend mode="normal" in="SourceGraphic" in2="effect_dropShadow_1" result="shape"/>
		</filter>
		<clipPath id="clip1_91">
			<rect id="icon" rx="0.000000" width="50.000000" height="49.000000" transform="translate(4.500000 0.500000)" fill="white" fill-opacity="0"/>
		</clipPath>
	</defs>
	<g filter="url(#filter_1_91_dd)">
		<rect id="icon" rx="0.000000" width="50.000000" height="49.000000" transform="translate(4.500000 0.500000)" fill="#FFFFFF" fill-opacity="0"/>
		<g clip-path="url(#clip1_91)">
			<rect id="icon bd" x="4.000000" rx="19.000000" width="50.000000" height="50.000000" fill="#02897A" fill-opacity="1.000000"/>
			<rect id="icon bd" x="4.000000" rx="19.000000" width="50.000000" height="50.000000" stroke="#FFFFFF" stroke-opacity="0" stroke-width="0.000000"/>
			<rect id="icon bd" x="4.000000" rx="19.000000" width="50.000000" height="50.000000" stroke="#FF9900" stroke-opacity="0" stroke-width="0.000000"/>
			<path id="" d="M23.97 17.16L33.11 26.31C33.28 26.47 33.33 26.72 33.24 26.92C33.15 27.14 32.94 27.28 32.71 27.28L29.3 27.28L31.09 31.53C31.22 31.83 31.08 32.16 30.79 32.28L29.21 32.95C28.91 33.08 28.58 32.93 28.46 32.65L26.75 28.61L23.97 31.4C23.86 31.5 23.72 31.57 23.57 31.57C23.5 31.57 23.41 31.55 23.35 31.52C23.14 31.43 23 31.23 23 31L23 17.57C23 17.33 23.14 17.13 23.35 17.04C23.41 17.01 23.5 17 23.57 17C23.72 17 23.86 17.05 23.97 17.16Z" fill="#FFFFFF" fill-opacity="1.000000" fill-rule="evenodd"/>
		</g>
	</g>
</svg>
