<svg width="58.000000" height="58.000000" viewBox="0 0 58 58" fill="none" xmlns="http://www.w3.org/2000/svg" xmlns:xlink="http://www.w3.org/1999/xlink">
	<desc>
			Created with Pixso.
	</desc>
	<defs>
		<filter id="filter_1_112_dd" x="0.000000" y="0.000000" width="58.000000" height="58.000000" filterUnits="userSpaceOnUse" color-interpolation-filters="sRGB">
			<feFlood flood-opacity="0" result="BackgroundImageFix"/>
			<feColorMatrix in="SourceAlpha" type="matrix" values="0 0 0 0 0 0 0 0 0 0 0 0 0 0 0 0 0 0 127 0" result="hardAlpha"/>
			<feOffset dx="0" dy="4"/>
			<feGaussianBlur stdDeviation="1.33333"/>
			<feComposite in2="hardAlpha" operator="out" k2="-1" k3="1"/>
			<feColorMatrix type="matrix" values="0 0 0 0 0 0 0 0 0 0 0 0 0 0 0 0 0 0 0.25 0"/>
			<feBlend mode="normal" in2="BackgroundImageFix" result="effect_dropShadow_1"/>
			<feBlend mode="normal" in="SourceGraphic" in2="effect_dropShadow_1" result="shape"/>
		</filter>
		<clipPath id="clip1_112">
			<rect id="icon" rx="0.000000" width="49.000000" height="49.000000" transform="translate(4.500000 0.500000)" fill="white" fill-opacity="0"/>
		</clipPath>
	</defs>
	<g filter="url(#filter_1_112_dd)">
		<rect id="icon" rx="0.000000" width="49.000000" height="49.000000" transform="translate(4.500000 0.500000)" fill="#FFFFFF" fill-opacity="0"/>
		<g clip-path="url(#clip1_112)">
			<rect id="icon bd" x="4.000000" rx="19.000000" width="50.000000" height="50.000000" fill="#F03E3D" fill-opacity="1.000000"/>
			<path id="" d="M35.42 19.14L34.57 19.14C34.57 22.44 32.99 24.83 31.24 26C32.99 27.16 34.57 29.55 34.57 32.85L35.42 32.85C35.58 32.85 35.71 32.98 35.71 33.14L35.71 33.71C35.71 33.87 35.58 34 35.42 34L22.28 34C22.12 34 22 33.87 22 33.71L22 33.14C22 32.98 22.12 32.85 22.28 32.85L23.14 32.85C23.14 29.55 24.72 27.16 26.47 26C24.72 24.83 23.14 22.44 23.14 19.14L22.28 19.14C22.12 19.14 22 19.01 22 18.85L22 18.28C22 18.12 22.12 18 22.28 18L35.42 18C35.58 18 35.71 18.12 35.71 18.28L35.71 18.85C35.71 19.01 35.58 19.14 35.42 19.14ZM32.66 22.57C33.13 21.59 33.42 20.44 33.42 19.14L24.28 19.14C24.28 20.44 24.58 21.59 25.04 22.57L32.66 22.57ZM24.79 30L32.91 30C32.25 28.27 31.07 27.05 29.88 26.57L27.83 26.57C26.64 27.05 25.45 28.27 24.79 30Z" fill="#FFFFFF" fill-opacity="1.000000" fill-rule="evenodd"/>
		</g>
	</g>
</svg>
